<svg xmlns="http://www.w3.org/2000/svg" width="27.414" height="35.088" viewBox="0 0 27.414 35.088">
  <g id="Raggruppa_11191" data-name="Raggruppa 11191" transform="translate(-24)">
    <path id="Tracciato_60325" data-name="Tracciato 60325" d="M97.048,17.531l-.884,10.78a2.083,2.083,0,0,1-4.153-.336l.685-8.4-2.817.158a10.667,10.667,0,0,1-1.816,11.993L85.37,29.038a6.85,6.85,0,0,0-9.677-9.677L73,16.667a10.631,10.631,0,0,1,5.579-2.755l5.161-5.873-2.92-1.7L77.283,9.492A2.085,2.085,0,0,1,74.508,6.38l4.66-4.16A2.078,2.078,0,0,1,81.6,1.974s9.547,5.544,9.56,5.558a2.444,2.444,0,0,1,.418,3.6l-4,4.557,7.271-.4a2.08,2.08,0,0,1,2.2,2.241ZM92.6,6.977a3.488,3.488,0,1,0-3.488-3.488A3.489,3.489,0,0,0,92.6,6.977Z" transform="translate(-45.642)" fill="#0060c1"/>
    <path id="Tracciato_60326" data-name="Tracciato 60326" d="M34.664,274.119A6.859,6.859,0,0,1,29,263.421L26.275,260.7A10.543,10.543,0,0,0,24,267.259a10.671,10.671,0,0,0,17.229,8.4l-2.721-2.721a6.805,6.805,0,0,1-3.845,1.186Z" transform="translate(0 -242.833)" fill="#b8191a"/>
  </g>
</svg>
